<?xml version="1.0" encoding="UTF-8"?>
<!DOCTYPE svg PUBLIC "-//W3C//DTD SVG 1.1//EN" "http://www.w3.org/Graphics/SVG/1.1/DTD/svg11.dtd">
<!-- Creator: CorelDRAW 2019 (64 Bit) -->
<svg xmlns="http://www.w3.org/2000/svg" xml:space="preserve" width="619px" height="212px" version="1.1" style="shape-rendering:geometricPrecision; text-rendering:geometricPrecision; image-rendering:optimizeQuality; fill-rule:evenodd; clip-rule:evenodd"
viewBox="0 0 197.95 67.98"
 xmlns:xlink="http://www.w3.org/1999/xlink">
 <defs>
  <style type="text/css">
   <![CDATA[
    .fil1 {fill:none;fill-rule:nonzero}
    .fil0 {fill:#37BA47;fill-rule:nonzero}
   ]]>
  </style>
 </defs>
 <g id="Camada_x0020_1">
  <metadata id="CorelCorpID_0Corel-Layer"/>
  <g id="_2611904738544">
   <g id="_1798233888576">
    <path class="fil0" d="M47.06 11l126.31 0c6.36,0 12.15,2.6 16.34,6.8 4.2,4.19 6.8,9.97 6.8,16.34 0,6.36 -2.6,12.15 -6.8,16.35 -4.19,4.19 -9.98,6.79 -16.34,6.79l-126.98 0c-4.77,3.34 -10.59,5.28 -16.83,5.19 -4.41,-0.07 -8.57,-1.14 -12.27,-2.99l-14.43 3.43c-0.78,0.18 -1.5,-0.51 -1.33,-1.31l3.02 -14.72c-1.98,-3.87 -3.09,-8.25 -3.11,-12.88 -0.04,-15.23 11.96,-27.89 27.17,-28.62 6.93,-0.33 13.35,1.81 18.45,5.62l0 0zm5.66 40.2l120.65 0c4.68,0 8.96,-1.92 12.05,-5.02 3.08,-3.09 5.01,-7.35 5.01,-12.04 0,-4.69 -1.93,-8.96 -5.01,-12.05 -3.09,-3.1 -7.37,-5.01 -12.05,-5.01l-120.28 0c2.38,3.26 4.08,7.06 4.91,11.16l-6.49 -0.54c-1.05,-3.59 -2.97,-6.89 -5.68,-9.6 -4.24,-4.22 -9.85,-6.56 -15.82,-6.56 -5.93,0 -11.64,2.36 -15.82,6.56 -4.22,4.22 -6.54,9.83 -6.54,15.8 0,3.59 0.81,7 2.42,10.17l0.99 1.94 -1.86 9.03 8.84 -2.1 2.01 1c3.11,1.54 6.45,2.34 9.96,2.34 5.97,0 11.58,-2.34 15.82,-6.56 4.18,-4.18 6.54,-9.89 6.54,-15.82 0,-2.12 -0.3,-4.21 -0.86,-6.2l6.49 0.54c0.44,2.11 0.62,4.33 0.55,6.58 -0.2,6.17 -2.34,11.82 -5.83,16.38l0 0zm-8.85 -11.1l-5.54 -1.59c-0.73,-0.21 -1.51,0 -2.04,0.54l-1.34 1.39c-0.58,0.57 -1.45,0.75 -2.2,0.45 -2.62,-1.06 -8.12,-5.96 -9.52,-8.4 -0.41,-0.71 -0.34,-1.59 0.15,-2.23l1.18 -1.53c0.47,-0.6 0.57,-1.4 0.25,-2.09l-2.32 -5.27c-0.55,-1.26 -2.16,-1.63 -3.22,-0.74 -1.54,1.31 -3.37,3.29 -3.6,5.49 -0.39,3.88 1.27,8.76 7.56,14.63 7.26,6.78 13.08,7.68 16.86,6.75 2.15,-0.52 3.87,-2.6 4.95,-4.3 0.73,-1.17 0.15,-2.72 -1.17,-3.09l0 -0.01z"/>
    <polygon class="fil0" points="76.21,24.78 81.16,24.78 81.14,26.16 77.94,26.16 77.94,27.64 80.91,27.64 80.91,29.02 77.94,29.02 77.94,31.41 76.21,31.41 "/>
    <path id="_1" class="fil0" d="M86.48 31.41l-0.45 -1.17 -2.86 0 -0.47 1.17 -1.78 0 2.85 -6.63 1.78 0 2.77 6.63 -1.84 0zm-2.79 -2.5l1.83 0 -0.91 -2.35 -0.92 2.35z"/>
    <polygon id="_2" class="fil0" points="88.93,24.78 90.66,24.78 90.66,29.94 93.47,29.94 93.47,31.41 88.93,31.41 "/>
    <polygon id="_3" class="fil0" points="94.25,24.78 99.48,24.78 99.48,26.16 95.98,26.16 95.98,27.4 99.13,27.4 99.13,28.77 95.98,28.79 95.98,30.04 99.57,30.04 99.57,31.41 94.25,31.41 "/>
    <path id="_4" class="fil0" d="M107.61 31.41l-0.46 -1.17 -2.86 0 -0.47 1.17 -1.77 0 2.85 -6.63 1.77 0 2.78 6.63 -1.84 0zm-2.81 -2.5l1.84 0 -0.9 -2.35 -0.94 2.35z"/>
    <path id="_5" class="fil0" d="M114.25 28.03l1.5 0 0 2.64c-0.36,0.25 -0.79,0.47 -1.3,0.62 -0.52,0.16 -1,0.25 -1.47,0.25 -0.66,0 -1.26,-0.15 -1.8,-0.46 -0.55,-0.3 -0.96,-0.7 -1.28,-1.22 -0.3,-0.54 -0.47,-1.12 -0.47,-1.76 0,-0.65 0.17,-1.23 0.49,-1.75 0.31,-0.52 0.75,-0.93 1.32,-1.22 0.55,-0.31 1.18,-0.46 1.87,-0.46 0.48,0 0.97,0.1 1.47,0.28 0.49,0.18 0.91,0.42 1.25,0.73l-0.99 1.21c-0.23,-0.24 -0.51,-0.41 -0.83,-0.55 -0.31,-0.13 -0.61,-0.19 -0.92,-0.19 -0.35,0 -0.67,0.08 -0.96,0.24 -0.27,0.18 -0.51,0.42 -0.66,0.7 -0.16,0.31 -0.25,0.64 -0.25,1.01 0,0.37 0.09,0.7 0.25,1 0.15,0.3 0.39,0.54 0.67,0.7 0.29,0.17 0.62,0.27 0.97,0.27 0.34,0 0.71,-0.11 1.14,-0.34l0 -1.7 0 0z"/>
    <path id="_6" class="fil0" d="M120.05 24.67c0.68,0 1.28,0.15 1.83,0.46 0.55,0.29 0.98,0.7 1.29,1.21 0.31,0.52 0.47,1.1 0.47,1.74 0,0.65 -0.16,1.24 -0.47,1.76 -0.31,0.53 -0.74,0.94 -1.29,1.24 -0.55,0.31 -1.15,0.46 -1.83,0.46 -0.67,0 -1.28,-0.15 -1.83,-0.46 -0.55,-0.3 -0.97,-0.71 -1.29,-1.24 -0.3,-0.52 -0.47,-1.11 -0.47,-1.76 0,-0.64 0.17,-1.22 0.47,-1.74 0.32,-0.51 0.74,-0.92 1.29,-1.21 0.55,-0.31 1.16,-0.46 1.83,-0.46zm0.02 1.48c-0.32,0 -0.64,0.08 -0.91,0.24 -0.28,0.18 -0.51,0.42 -0.66,0.72 -0.17,0.3 -0.25,0.62 -0.25,0.99 0,0.36 0.08,0.69 0.25,0.99 0.16,0.3 0.38,0.53 0.66,0.71 0.29,0.17 0.59,0.26 0.91,0.26 0.33,0 0.63,-0.09 0.9,-0.26 0.28,-0.18 0.5,-0.41 0.65,-0.71 0.17,-0.3 0.23,-0.63 0.23,-0.99 0,-0.37 -0.06,-0.69 -0.23,-0.99 -0.15,-0.3 -0.37,-0.54 -0.65,-0.72 -0.27,-0.16 -0.57,-0.24 -0.9,-0.24z"/>
    <path id="_7" class="fil0" d="M128.48 31.41l-0.96 -1.83 -0.04 0 -1.25 0 0 1.83 -1.74 0 0 -6.63 2.99 0c0.88,0 1.55,0.21 2.03,0.61 0.49,0.41 0.73,0.98 0.73,1.72 0,0.49 -0.11,0.93 -0.3,1.29 -0.21,0.36 -0.49,0.65 -0.88,0.85l1.38 2.16 -1.96 0zm-2.25 -3.22l1.26 0c0.35,0 0.62,-0.08 0.81,-0.26 0.2,-0.18 0.29,-0.42 0.29,-0.77 0,-0.31 -0.09,-0.56 -0.29,-0.74 -0.19,-0.16 -0.46,-0.26 -0.81,-0.26l-1.26 0 0 2.03 0 0z"/>
    <path id="_8" class="fil0" d="M136.21 31.41l-0.45 -1.17 -2.86 0 -0.47 1.17 -1.77 0 2.84 -6.63 1.78 0 2.78 6.63 -1.85 0zm-2.79 -2.5l1.83 0 -0.91 -2.35 -0.92 2.35z"/>
    <path id="_9" class="fil0" d="M145.55 27.04c-0.21,-0.28 -0.47,-0.5 -0.77,-0.66 -0.29,-0.15 -0.58,-0.23 -0.88,-0.23 -0.33,0 -0.63,0.08 -0.91,0.24 -0.27,0.17 -0.49,0.4 -0.64,0.69 -0.17,0.3 -0.24,0.62 -0.24,0.99 0,0.36 0.07,0.67 0.24,0.98 0.15,0.29 0.37,0.52 0.64,0.68 0.28,0.17 0.58,0.25 0.91,0.25 0.28,0 0.56,-0.07 0.85,-0.2 0.31,-0.14 0.57,-0.33 0.8,-0.57l1.02 1.09c-0.36,0.37 -0.8,0.67 -1.29,0.91 -0.49,0.22 -0.98,0.33 -1.46,0.33 -0.66,0 -1.25,-0.16 -1.79,-0.46 -0.52,-0.3 -0.93,-0.71 -1.25,-1.24 -0.3,-0.52 -0.46,-1.11 -0.46,-1.76 0,-0.64 0.17,-1.22 0.47,-1.74 0.32,-0.51 0.73,-0.92 1.28,-1.21 0.54,-0.31 1.14,-0.46 1.8,-0.46 0.5,0 0.98,0.11 1.46,0.32 0.48,0.21 0.9,0.48 1.23,0.84l-1.01 1.21 0 0z"/>
    <path id="_10" class="fil0" d="M150.35 24.67c0.68,0 1.28,0.15 1.83,0.46 0.54,0.29 0.98,0.7 1.28,1.21 0.32,0.52 0.47,1.1 0.47,1.74 0,0.65 -0.15,1.24 -0.47,1.76 -0.3,0.53 -0.74,0.94 -1.28,1.24 -0.55,0.31 -1.15,0.46 -1.83,0.46 -0.67,0 -1.29,-0.15 -1.83,-0.46 -0.55,-0.3 -0.97,-0.71 -1.29,-1.24 -0.32,-0.52 -0.47,-1.11 -0.47,-1.76 0,-0.64 0.15,-1.22 0.47,-1.74 0.32,-0.51 0.74,-0.92 1.29,-1.21 0.54,-0.31 1.16,-0.46 1.83,-0.46zm0.01 1.48c-0.33,0 -0.63,0.08 -0.9,0.24 -0.29,0.18 -0.51,0.42 -0.68,0.72 -0.16,0.3 -0.24,0.62 -0.24,0.99 0,0.36 0.08,0.69 0.26,0.99 0.16,0.3 0.38,0.53 0.66,0.71 0.27,0.17 0.57,0.26 0.9,0.26 0.33,0 0.64,-0.09 0.91,-0.26 0.28,-0.18 0.48,-0.41 0.65,-0.71 0.15,-0.3 0.23,-0.63 0.23,-0.99 0,-0.37 -0.08,-0.69 -0.23,-0.99 -0.17,-0.3 -0.37,-0.54 -0.65,-0.72 -0.27,-0.16 -0.58,-0.24 -0.91,-0.24z"/>
    <polygon id="_11" class="fil0" points="154.79,24.78 156.68,24.78 158.59,28.66 160.5,24.78 162.39,24.78 162.39,31.41 160.86,31.41 160.84,27.22 159.15,30.75 158.04,30.75 156.33,27.22 156.33,31.41 154.79,31.41 "/>
    <path id="_12" class="fil0" d="M77.99 40.75c0,0.41 0.13,0.74 0.38,1.01 0.24,0.24 0.56,0.37 0.93,0.37 0.37,0 0.68,-0.13 0.91,-0.37 0.23,-0.25 0.34,-0.6 0.34,-1.01l0 -3.9 1.74 0 0 3.9c0,0.56 -0.13,1.07 -0.36,1.5 -0.25,0.44 -0.59,0.77 -1.05,1 -0.45,0.24 -0.97,0.35 -1.58,0.35 -0.6,0 -1.14,-0.11 -1.59,-0.35 -0.46,-0.23 -0.82,-0.56 -1.06,-1 -0.25,-0.43 -0.37,-0.94 -0.37,-1.5l0 -3.9 1.71 0 0 3.9z"/>
    <polygon id="_13" class="fil0" points="83.47,36.85 85.35,36.85 87.26,40.72 89.18,36.85 91.06,36.85 91.06,43.49 89.53,43.49 89.52,39.28 87.83,42.81 86.71,42.81 85.01,39.28 85.01,43.49 83.47,43.49 "/>
    <polygon id="_14" class="fil0" points="94.44,36.85 99.68,36.85 99.68,38.23 96.18,38.23 96.18,39.47 99.34,39.47 99.34,40.85 96.18,40.85 96.18,42.1 99.78,42.1 99.78,43.49 94.44,43.49 "/>
    <path id="_15" class="fil0" d="M105.41 38.85c-0.36,-0.22 -0.73,-0.38 -1.13,-0.52 -0.42,-0.12 -0.75,-0.19 -1.02,-0.19 -0.21,0 -0.39,0.04 -0.5,0.12 -0.12,0.07 -0.19,0.19 -0.19,0.35 0,0.13 0.06,0.26 0.17,0.35 0.11,0.1 0.23,0.18 0.4,0.24 0.15,0.07 0.38,0.13 0.7,0.23 0.45,0.14 0.84,0.26 1.13,0.4 0.3,0.14 0.56,0.33 0.78,0.61 0.21,0.27 0.32,0.63 0.32,1.07 0,0.45 -0.13,0.82 -0.36,1.14 -0.24,0.3 -0.55,0.54 -0.95,0.7 -0.41,0.15 -0.87,0.24 -1.36,0.24 -0.55,0 -1.1,-0.1 -1.64,-0.29 -0.55,-0.2 -1.02,-0.46 -1.42,-0.79l0.68 -1.36c0.33,0.3 0.73,0.55 1.18,0.73 0.45,0.19 0.87,0.29 1.21,0.29 0.26,0 0.47,-0.06 0.62,-0.14 0.14,-0.1 0.22,-0.23 0.22,-0.43 0,-0.15 -0.06,-0.27 -0.17,-0.37 -0.11,-0.09 -0.24,-0.18 -0.41,-0.24 -0.18,-0.06 -0.41,-0.13 -0.71,-0.21 -0.46,-0.12 -0.83,-0.26 -1.13,-0.39 -0.29,-0.12 -0.55,-0.33 -0.76,-0.59 -0.2,-0.26 -0.31,-0.6 -0.31,-1.04 0,-0.4 0.11,-0.77 0.33,-1.08 0.22,-0.31 0.52,-0.55 0.92,-0.71 0.4,-0.17 0.86,-0.25 1.4,-0.25 0.47,0 0.95,0.07 1.42,0.21 0.47,0.12 0.88,0.31 1.22,0.53l-0.64 1.39 0 0z"/>
    <path id="_16" class="fil0" d="M109.86 36.85c0.84,0 1.5,0.2 1.97,0.61 0.47,0.4 0.7,0.98 0.7,1.72 0,0.77 -0.23,1.39 -0.7,1.82 -0.47,0.43 -1.13,0.65 -1.97,0.65l-1.18 0 0 1.84 -1.73 0 0 -6.64 2.91 0 0 0zm-0.1 3.42c0.36,0 0.64,-0.1 0.83,-0.28 0.19,-0.16 0.29,-0.42 0.29,-0.75 0,-0.33 -0.1,-0.58 -0.29,-0.74 -0.19,-0.18 -0.47,-0.27 -0.83,-0.27l-1.08 0 0 2.04 1.08 0 0 0z"/>
    <polygon id="_17" class="fil0" points="113.37,36.85 118.61,36.85 118.61,38.23 115.1,38.23 115.1,39.47 118.26,39.47 118.26,40.85 115.1,40.85 115.1,42.1 118.7,42.1 118.7,43.49 113.37,43.49 "/>
    <path id="_18" class="fil0" d="M124.55 39.1c-0.21,-0.27 -0.47,-0.48 -0.76,-0.65 -0.3,-0.16 -0.59,-0.24 -0.88,-0.24 -0.34,0 -0.64,0.09 -0.92,0.26 -0.27,0.16 -0.48,0.4 -0.65,0.69 -0.15,0.28 -0.23,0.61 -0.23,0.97 0,0.36 0.08,0.69 0.23,0.98 0.17,0.3 0.38,0.52 0.65,0.69 0.28,0.18 0.58,0.26 0.92,0.26 0.26,0 0.55,-0.07 0.86,-0.21 0.28,-0.15 0.55,-0.33 0.78,-0.58l1.02 1.09c-0.36,0.39 -0.79,0.69 -1.28,0.91 -0.5,0.22 -0.99,0.33 -1.47,0.33 -0.66,0 -1.26,-0.15 -1.78,-0.46 -0.53,-0.3 -0.95,-0.71 -1.25,-1.23 -0.3,-0.53 -0.45,-1.1 -0.45,-1.76 0,-0.64 0.15,-1.23 0.45,-1.74 0.32,-0.52 0.74,-0.92 1.28,-1.22 0.54,-0.29 1.14,-0.44 1.82,-0.44 0.48,0 0.97,0.1 1.45,0.3 0.47,0.21 0.88,0.48 1.21,0.84l-1 1.21 0 0z"/>
    <polygon id="_19" class="fil0" points="126.31,36.85 128.03,36.85 128.03,43.49 126.31,43.49 "/>
    <path id="_20" class="fil0" d="M134.19 43.49l-0.45 -1.18 -2.86 0 -0.47 1.18 -1.78 0 2.85 -6.64 1.78 0 2.77 6.64 -1.84 0zm-2.79 -2.5l1.83 0 -0.91 -2.37 -0.92 2.37z"/>
    <polygon id="_21" class="fil0" points="136.64,36.85 138.36,36.85 138.36,42 141.18,42 141.18,43.49 136.64,43.49 "/>
    <polygon id="_22" class="fil0" points="141.96,36.85 143.69,36.85 143.69,43.49 141.96,43.49 "/>
    <path id="_23" class="fil0" d="M149.54 38.85c-0.34,-0.22 -0.73,-0.38 -1.13,-0.52 -0.4,-0.12 -0.73,-0.19 -1,-0.19 -0.22,0 -0.39,0.04 -0.51,0.12 -0.13,0.07 -0.18,0.19 -0.18,0.35 0,0.13 0.05,0.26 0.15,0.35 0.11,0.1 0.25,0.18 0.4,0.24 0.17,0.07 0.4,0.13 0.7,0.23 0.47,0.14 0.84,0.26 1.14,0.4 0.31,0.14 0.55,0.33 0.77,0.61 0.22,0.27 0.32,0.63 0.32,1.07 0,0.45 -0.11,0.82 -0.34,1.14 -0.24,0.3 -0.55,0.54 -0.97,0.7 -0.4,0.15 -0.85,0.24 -1.36,0.24 -0.53,0 -1.09,-0.1 -1.64,-0.29 -0.55,-0.2 -1.01,-0.46 -1.41,-0.79l0.67 -1.36c0.33,0.3 0.73,0.55 1.18,0.73 0.47,0.19 0.87,0.29 1.23,0.29 0.26,0 0.45,-0.06 0.6,-0.14 0.16,-0.1 0.22,-0.23 0.22,-0.43 0,-0.15 -0.05,-0.27 -0.16,-0.37 -0.11,-0.09 -0.25,-0.18 -0.41,-0.24 -0.17,-0.06 -0.4,-0.13 -0.7,-0.21 -0.46,-0.12 -0.83,-0.26 -1.13,-0.39 -0.31,-0.12 -0.55,-0.33 -0.76,-0.59 -0.22,-0.26 -0.32,-0.6 -0.32,-1.04 0,-0.4 0.1,-0.77 0.32,-1.08 0.22,-0.31 0.54,-0.55 0.94,-0.71 0.4,-0.17 0.86,-0.25 1.39,-0.25 0.48,0 0.94,0.07 1.41,0.21 0.47,0.12 0.88,0.31 1.24,0.53l-0.66 1.39 0 0z"/>
    <polygon id="_24" class="fil0" points="150.5,36.85 156.2,36.85 156.2,38.28 154.2,38.28 154.2,43.49 152.47,43.49 152.47,38.28 150.5,38.28 "/>
    <path id="_25" class="fil0" d="M161.05 43.49l-0.45 -1.18 -2.86 0 -0.47 1.18 -1.78 0 2.85 -6.64 1.78 0 2.77 6.64 -1.84 0zm-2.79 -2.5l1.83 0 -0.91 -2.37 -0.92 2.37z"/>
    <rect class="fil1" width="197.95" height="67.98"/>
   </g>
  </g>
 </g>
</svg>
